# xmcd CD database file
# Copyright (C) 1995-1998 Ti Kan
#
# Track frame offsets:
#	150
#	42542
#	72749
#	135359
#	152219
#
# Disc length: 2526 seconds
#
# Revision: 1
# Processed by: cddbd v1.4PL0 Copyright (c) Steve Scherf et al.
# Submitted via: CDex 1.30Release
#
DISCID=4609dc05
DTITLE=Rory Gallagher - Taste - Live at Stadhatte
DYEAR=1900
DGENRE=Blues
TTITLE0=I feel so Good
TTITLE1=What's going on?
TTITLE2=Catfish
TTITLE3=Same Old Story
TTITLE4=Pontiac Blues
EXTD=ID3G:   0
EXTT0=
EXTT1=
EXTT2=
EXTT3=
EXTT4=
PLAYORDER=
